STARTFONT 2.1
COMMENT
COMMENT Converted from OpenType font "Q:\font stuff\winfont\GeoPlain Hollow.ttf" by "otf2bdf 3.0".
COMMENT
FONT -FreeType-GeoPlain Hollow-Medium-R-Normal--32-320-72-72-P-77-ISO10646-1
SIZE 32 72 72
FONTBOUNDINGBOX 44 44 -4 -10
STARTPROPERTIES 19
FOUNDRY "FreeType"
FAMILY_NAME "GeoPlain Hollow"
WEIGHT_NAME "Medium"
SLANT "R"
SETWIDTH_NAME "Normal"
ADD_STYLE_NAME ""
PIXEL_SIZE 28
POINT_SIZE 320
RESOLUTION_X 72
RESOLUTION_Y 72
SPACING "P"
AVERAGE_WIDTH 77
CHARSET_REGISTRY "ISO10646"
CHARSET_ENCODING "1"
FONT_ASCENT 27
FONT_DESCENT 9
COPYRIGHT "Copyright (c)1993 by Fantazia Concepts"
_OTF_FONTFILE "Q:\font stuff\winfont\GeoPlain Hollow.ttf"
_OTF_PSNAME "GeoPlainHo"
ENDPROPERTIES
CHARS 394
STARTCHAR 0020
ENCODING 32
SWIDTH 343 0
DWIDTH 11 0
BBX 0 0 0 0
BITMAP
ENDCHAR
STARTCHAR 0021
ENCODING 33
SWIDTH 156 0
DWIDTH 5 0
BBX 3 26 1 0
BITMAP
E0
A0
A0
A0
A0
A0
A0
A0
A0
A0
A0
A0
A0
A0
A0
A0
A0
A0
40
00
00
00
60
A0
A0
40
ENDCHAR
STARTCHAR 0022
ENCODING 34
SWIDTH 312 0
DWIDTH 10 0
BBX 8 7 1 21
BITMAP
E7
A5
A5
A5
A5
A5
42
ENDCHAR
STARTCHAR 0023
ENCODING 35
SWIDTH 625 0
DWIDTH 20 0
BBX 18 26 1 0
BITMAP
078780
048480
050500
050500
050500
090900
090900
39F9C0
400040
71F1C0
121200
121200
121200
121400
141400
E3E380
800080
E7E700
242400
282800
282800
282800
484800
484800
484800
303000
ENDCHAR
STARTCHAR 0024
ENCODING 36
SWIDTH 531 0
DWIDTH 17 0
BBX 15 31 1 -3
BITMAP
0380
0280
06C0
1830
2008
46D0
8AA0
9280
A280
A280
A280
9280
9280
4A80
24C0
1030
0C08
02C4
02A4
0292
0292
0292
0292
0292
02A4
1EC4
2008
1010
0EE0
0280
0380
ENDCHAR
STARTCHAR 0025
ENCODING 37
SWIDTH 625 0
DWIDTH 20 0
BBX 18 26 1 0
BITMAP
3E03C0
410480
8C8480
928900
A24A00
A29200
9CA400
40A400
234800
1C4800
009000
012000
012000
024000
024000
048000
049F00
096080
124C40
129240
249240
249240
484C40
504080
903300
600C00
ENDCHAR
STARTCHAR 0026
ENCODING 38
SWIDTH 875 0
DWIDTH 28 0
BBX 26 29 1 0
BITMAP
01F00000
060C0000
08420000
11B20000
12090000
14090000
24090000
14090000
12090000
11120000
08E20000
0C040000
10030000
23F080C0
440C4140
48022240
90011440
90008880
A0004100
A0002200
A0004100
A0008880
90011440
88022240
48044140
261880C0
11E10000
0C060000
03F80000
ENDCHAR
STARTCHAR 0027
ENCODING 39
SWIDTH 156 0
DWIDTH 5 0
BBX 3 7 1 21
BITMAP
E0
A0
A0
A0
A0
A0
40
ENDCHAR
STARTCHAR 0028
ENCODING 40
SWIDTH 312 0
DWIDTH 10 0
BBX 8 28 1 0
BITMAP
06
09
11
12
24
24
48
50
90
90
90
A0
A0
A0
A0
A0
A0
90
90
90
50
48
48
24
12
11
09
06
ENDCHAR
STARTCHAR 0029
ENCODING 41
SWIDTH 312 0
DWIDTH 10 0
BBX 8 28 1 0
BITMAP
60
90
90
48
24
24
12
12
0A
09
09
09
05
05
05
05
09
09
09
0A
12
12
24
24
48
88
90
60
ENDCHAR
STARTCHAR 002A
ENCODING 42
SWIDTH 531 0
DWIDTH 17 0
BBX 15 15 1 10
BITMAP
0380
1298
2AA4
4644
2208
1010
E00E
8002
F83E
1010
2208
4644
2AA8
1290
0380
ENDCHAR
STARTCHAR 002B
ENCODING 43
SWIDTH 500 0
DWIDTH 16 0
BBX 14 15 1 1
BITMAP
0780
0480
0480
0480
0480
0480
F87C
8004
FCFC
0480
0480
0480
0480
0480
0300
ENDCHAR
STARTCHAR 002C
ENCODING 44
SWIDTH 187 0
DWIDTH 6 0
BBX 5 8 0 -3
BITMAP
38
48
48
48
48
90
A0
40
ENDCHAR
STARTCHAR 002D
ENCODING 45
SWIDTH 500 0
DWIDTH 16 0
BBX 14 3 1 8
BITMAP
FFFC
8004
FFFC
ENDCHAR
STARTCHAR 002E
ENCODING 46
SWIDTH 187 0
DWIDTH 6 0
BBX 4 5 1 0
BITMAP
70
90
90
90
60
ENDCHAR
STARTCHAR 002F
ENCODING 47
SWIDTH 625 0
DWIDTH 20 0
BBX 20 31 0 -3
BITMAP
000070
000090
000120
000120
000240
000240
000480
000500
000900
001200
001200
002400
002400
004800
009000
009000
012000
012000
024000
024000
048000
090000
090000
120000
120000
240000
280000
480000
900000
900000
E00000
ENDCHAR
STARTCHAR 0030
ENCODING 48
SWIDTH 593 0
DWIDTH 19 0
BBX 17 27 1 -1
BITMAP
03E000
0C1800
300400
47E200
481100
900900
900500
A00480
A00480
A00480
A00480
A00480
A00480
A00480
A00480
A00480
A00480
A00480
A00480
A00480
A00500
900900
480900
463200
21C400
180800
07F000
ENDCHAR
STARTCHAR 0031
ENCODING 49
SWIDTH 281 0
DWIDTH 9 0
BBX 7 26 1 0
BITMAP
1E
12
22
22
42
52
92
F2
12
12
12
12
12
12
12
12
12
12
12
12
12
12
12
12
12
0C
ENDCHAR
STARTCHAR 0032
ENCODING 50
SWIDTH 531 0
DWIDTH 17 0
BBX 15 27 1 -1
BITMAP
1F00
60C0
8020
5F10
2090
0048
0048
0048
0048
0048
0090
0090
0120
0140
0240
0280
0480
0900
0900
1200
1200
2400
2800
4FFE
8002
8002
7FFC
ENDCHAR
STARTCHAR 0033
ENCODING 51
SWIDTH 343 0
DWIDTH 11 0
BBX 9 25 1 0
BITMAP
C000
B800
8400
7200
0900
0900
0500
0480
0480
0500
0500
0900
1200
0900
0900
0500
0480
0480
0500
0500
0900
1200
E400
8800
F000
ENDCHAR
STARTCHAR 0034
ENCODING 52
SWIDTH 531 0
DWIDTH 17 0
BBX 15 27 1 -1
BITMAP
0040
0040
00C0
0140
0140
0240
0240
0440
0440
0840
0840
1240
1240
2640
2640
4A40
4E7E
8002
8002
7E7C
0240
0240
0240
0240
0240
0240
0180
ENDCHAR
STARTCHAR 0035
ENCODING 53
SWIDTH 437 0
DWIDTH 14 0
BBX 13 26 0 0
BITMAP
7FF0
4010
4FF0
5000
5000
5000
5000
5000
5000
5000
5000
4F80
4060
7010
0F90
0048
0048
0028
0028
0028
0028
2048
5190
8A10
6060
1F80
ENDCHAR
STARTCHAR 0036
ENCODING 54
SWIDTH 656 0
DWIDTH 21 0
BBX 19 26 1 0
BITMAP
000F00
001200
002400
004800
009000
012000
024000
047000
080E00
104100
23B880
440480
980240
900140
A00120
A00120
A00120
A00120
900120
900140
480240
440480
233880
10C100
0C0600
03F800
ENDCHAR
STARTCHAR 0037
ENCODING 55
SWIDTH 562 0
DWIDTH 18 0
BBX 16 26 1 0
BITMAP
FFFF
8002
FFF2
0014
0024
0028
0048
0050
0090
00A0
0120
0140
0240
0280
0480
0500
0900
0A00
1200
2400
2400
4800
5000
9000
A000
4000
ENDCHAR
STARTCHAR 0038
ENCODING 56
SWIDTH 500 0
DWIDTH 16 0
BBX 14 27 1 -1
BITMAP
0780
1860
2010
4EC8
9024
9024
A024
A024
A024
9024
4848
4790
2010
1020
2010
4788
9868
9024
A024
A024
A024
9024
8848
4788
2010
1860
0780
ENDCHAR
STARTCHAR 0039
ENCODING 57
SWIDTH 656 0
DWIDTH 21 0
BBX 19 27 1 -1
BITMAP
01E000
061C00
180200
23F100
440C80
480240
900240
A00120
A00120
A00120
A00120
A00120
900140
900240
480440
260880
11F100
080200
07C400
008800
011000
022000
044000
088000
110000
220000
1C0000
ENDCHAR
STARTCHAR 003A
ENCODING 58
SWIDTH 187 0
DWIDTH 6 0
BBX 4 16 1 0
BITMAP
70
90
90
90
60
00
00
00
00
00
00
70
90
90
90
60
ENDCHAR
STARTCHAR 003B
ENCODING 59
SWIDTH 187 0
DWIDTH 6 0
BBX 5 19 0 -3
BITMAP
38
48
48
48
30
00
00
00
00
00
00
38
48
48
48
48
90
A0
40
ENDCHAR
STARTCHAR 003C
ENCODING 60
SWIDTH 468 0
DWIDTH 15 0
BBX 13 14 1 1
BITMAP
0008
0038
00C8
0318
0C60
3180
C200
4600
3180
0C60
0318
00C8
0038
0008
ENDCHAR
STARTCHAR 003D
ENCODING 61
SWIDTH 500 0
DWIDTH 16 0
BBX 14 8 1 5
BITMAP
FFFC
8004
8004
7FF8
0000
FFFC
8004
FFFC
ENDCHAR
STARTCHAR 003E
ENCODING 62
SWIDTH 468 0
DWIDTH 15 0
BBX 13 14 1 1
BITMAP
8000
E000
9800
4600
3180
0C60
0318
0318
0C60
1180
6200
8C00
B000
C000
ENDCHAR
STARTCHAR 003F
ENCODING 63
SWIDTH 468 0
DWIDTH 15 0
BBX 13 27 1 -1
BITMAP
1F00
60C0
8020
5F10
2090
0048
0048
0048
0048
0048
0090
0190
1E20
2040
4380
9C00
9000
9000
8B00
4480
2080
1F00
0E00
1200
1200
1200
0C00
ENDCHAR
STARTCHAR 0040
ENCODING 64
SWIDTH 906 0
DWIDTH 29 0
BBX 27 27 1 -1
BITMAP
003F8000
01C06000
02001800
0C7F8400
11806200
221E1900
24618480
49807A80
4A3F0A40
94408940
94804920
A5004920
A9002920
A9002920
A9002920
A5004920
A4804920
94408940
52330A40
490C2680
24C0E080
223F1900
11003200
08E0C400
061F0800
01803000
007FC000
ENDCHAR
STARTCHAR 0041
ENCODING 65
SWIDTH 781 0
DWIDTH 25 0
BBX 27 27 -1 -1
BITMAP
00040000
000C0000
000A0000
00120000
00110000
00250000
002C8000
004A8000
00524000
00914000
00A12000
01209000
01409000
02404800
04802800
04FFE400
08000400
08000200
13FFFA00
14000900
24000500
28000480
48000280
50000240
90000140
A0000120
400000C0
ENDCHAR
STARTCHAR 0042
ENCODING 66
SWIDTH 406 0
DWIDTH 13 0
BBX 11 26 1 0
BITMAP
F800
8700
B080
AC40
A240
A120
A120
A0A0
A0A0
A120
A120
A240
A440
A240
A120
A120
A0A0
A0A0
A120
A120
A240
A440
B880
8300
9C00
6000
ENDCHAR
STARTCHAR 0043
ENCODING 67
SWIDTH 781 0
DWIDTH 25 0
BBX 23 27 1 -1
BITMAP
003F80
01C060
020018
0C7FC4
118022
22001C
240000
480000
500000
900000
900000
A00000
A00000
A00000
A00000
A00000
900000
900000
500000
480000
240000
220008
110014
08C0E4
063F08
018030
007FC0
ENDCHAR
STARTCHAR 0044
ENCODING 68
SWIDTH 468 0
DWIDTH 15 0
BBX 13 26 1 0
BITMAP
F800
8600
8100
9880
A640
A120
A090
A090
A050
A048
A048
A048
A028
A048
A048
A048
A050
A090
A090
A120
A240
AC80
9100
8200
BC00
4000
ENDCHAR
STARTCHAR 0045
ENCODING 69
SWIDTH 593 0
DWIDTH 19 0
BBX 17 26 1 0
BITMAP
FFFF80
800080
9FFF80
A00000
A00000
A00000
A00000
A00000
A00000
A00000
A00000
A00000
9FFE00
800200
9FFE00
A00000
A00000
A00000
A00000
A00000
A00000
A00000
9FFF80
800080
800080
7FFF00
ENDCHAR
STARTCHAR 0046
ENCODING 70
SWIDTH 593 0
DWIDTH 19 0
BBX 17 26 1 0
BITMAP
FFFF80
800080
9FFF80
A00000
A00000
A00000
A00000
A00000
A00000
A00000
A00000
A00000
9FFE00
800200
9FFE00
A00000
A00000
A00000
A00000
A00000
A00000
A00000
A00000
A00000
A00000
400000
ENDCHAR
STARTCHAR 0047
ENCODING 71
SWIDTH 906 0
DWIDTH 29 0
BBX 27 27 1 -1
BITMAP
003F8000
01C06000
02001800
0C7FC400
11802200
22001C00
24000000
48000000
50000000
90000000
90000000
A0000000
A0000000
A0007FE0
A0008020
A0008020
90007F20
90000140
50000240
48000280
24000480
22000900
11003200
08E0C400
061F0800
01803000
007FC000
ENDCHAR
STARTCHAR 0048
ENCODING 72
SWIDTH 593 0
DWIDTH 19 0
BBX 17 26 1 0
BITMAP
E00780
A00480
A00480
A00480
A00480
A00480
A00480
A00480
A00480
A00480
A00480
A00480
9FF880
800080
9FFC80
A00480
A00480
A00480
A00480
A00480
A00480
A00480
A00480
A00480
A00480
400300
ENDCHAR
STARTCHAR 0049
ENCODING 73
SWIDTH 156 0
DWIDTH 5 0
BBX 3 26 1 0
BITMAP
E0
A0
A0
A0
A0
A0
A0
A0
A0
A0
A0
A0
A0
A0
A0
A0
A0
A0
A0
A0
A0
A0
A0
A0
A0
40
ENDCHAR
STARTCHAR 004A
ENCODING 74
SWIDTH 218 0
DWIDTH 7 0
BBX 9 35 -3 -9
BITMAP
0780
0480
0480
0480
0480
0480
0480
0480
0480
0480
0480
0480
0480
0480
0480
0480
0480
0480
0480
0480
0480
0480
0480
0480
0480
0480
0480
0480
0480
0900
0900
3200
C400
8800
F000
ENDCHAR
STARTCHAR 004B
ENCODING 75
SWIDTH 406 0
DWIDTH 13 0
BBX 11 26 1 0
BITMAP
E1E0
A140
A240
A280
A480
A500
A900
AA00
9200
9400
8400
8800
8800
8800
8400
9400
9200
AA00
A900
A500
A480
A280
A240
A140
A120
40C0
ENDCHAR
STARTCHAR 004C
ENCODING 76
SWIDTH 531 0
DWIDTH 17 0
BBX 15 26 1 0
BITMAP
E000
A000
A000
A000
A000
A000
A000
A000
A000
A000
A000
A000
A000
A000
A000
A000
A000
A000
A000
A000
A000
A000
9FFE
8002
8002
7FFC
ENDCHAR
STARTCHAR 004D
ENCODING 77
SWIDTH 750 0
DWIDTH 24 0
BBX 22 27 1 -1
BITMAP
800004
800004
C0000C
C0000C
A00014
A00014
900024
900024
880044
880044
840094
9400B4
920134
AA0154
A90254
A50494
A48494
A28914
A24914
A15214
A13414
A08414
A08814
A04814
A05014
A03014
402008
ENDCHAR
STARTCHAR 004E
ENCODING 78
SWIDTH 406 0
DWIDTH 13 0
BBX 11 27 1 -1
BITMAP
8000
80E0
C0A0
C0A0
A0A0
A0A0
90A0
90A0
88A0
88A0
84A0
94A0
92A0
AAA0
A9A0
A5A0
A4A0
A220
A220
A120
A120
A0A0
A0A0
A060
A060
A020
4000
ENDCHAR
STARTCHAR 004F
ENCODING 79
SWIDTH 906 0
DWIDTH 29 0
BBX 27 27 1 -1
BITMAP
003F8000
01C06000
02001800
0C7F8400
11806200
22001900
24000480
48000280
48000240
90000140
90000120
A0000120
A0000120
A0000120
A0000120
A0000120
A0000120
90000140
50000240
48000480
24000480
22000900
11001200
08E0E400
061F0800
01803000
007FC000
ENDCHAR
STARTCHAR 0050
ENCODING 80
SWIDTH 406 0
DWIDTH 13 0
BBX 11 26 1 0
BITMAP
FC00
8300
B080
AC40
A240
A120
A120
A0A0
A0A0
A120
A120
A240
A440
B880
8100
8600
B800
A000
A000
A000
A000
A000
A000
A000
A000
4000
ENDCHAR
STARTCHAR 0051
ENCODING 81
SWIDTH 906 0
DWIDTH 29 0
BBX 29 27 1 -1
BITMAP
003F8000
01C06000
02001800
0C7F8400
11806200
22001900
24000480
48000280
48000240
90000140
90000120
A0000120
A0000120
A0000120
A0000120
A0000120
A001F120
90008940
50004640
48002280
24001080
22000880
11001040
08E0E620
061F0910
01803088
007FC070
ENDCHAR
STARTCHAR 0052
ENCODING 82
SWIDTH 406 0
DWIDTH 13 0
BBX 11 26 1 0
BITMAP
FC00
8300
B080
AC40
A240
A120
A120
A0A0
A0A0
A120
A120
A240
A440
B880
8100
8600
8400
9400
B200
A900
A900
A480
A480
A240
A240
4180
ENDCHAR
STARTCHAR 0053
ENCODING 83
SWIDTH 531 0
DWIDTH 17 0
BBX 15 27 1 -1
BITMAP
07C0
1830
2008
47D0
9820
9000
A000
A000
A000
9000
9000
4800
27C0
1030
0E08
01E4
0024
0012
0012
0012
0012
0012
0024
1C44
2388
1010
0FE0
ENDCHAR
STARTCHAR 0054
ENCODING 84
SWIDTH 531 0
DWIDTH 17 0
BBX 15 26 1 0
BITMAP
FFFE
8002
FCFE
0480
0480
0480
0480
0480
0480
0480
0480
0480
0480
0480
0480
0480
0480
0480
0480
0480
0480
0480
0480
0480
0480
0300
ENDCHAR
STARTCHAR 0055
ENCODING 85
SWIDTH 593 0
DWIDTH 19 0
BBX 16 26 1 0
BITMAP
E007
A005
A005
A005
A005
A005
A005
A005
A005
A005
A005
A005
A005
A005
A005
A005
A005
A005
A005
A005
9009
4811
4422
23C4
1808
07F0
ENDCHAR
STARTCHAR 0056
ENCODING 86
SWIDTH 781 0
DWIDTH 25 0
BBX 27 26 -1 0
BITMAP
E00001E0
90000140
50000240
48000280
28000480
24000500
14000900
12000A00
0A001200
09001400
04802400
04804800
02404800
02409000
01209000
01212000
00914000
00524000
004A8000
002C8000
00250000
00110000
00120000
000A0000
000C0000
00040000
ENDCHAR
STARTCHAR 0057
ENCODING 87
SWIDTH 1187 0
DWIDTH 38 0
BBX 40 26 -1 0
BITMAP
E00000000F
9000000009
5000000012
4800000012
2800000024
2400000024
1400000048
1200000048
0A00180090
09001800A0
0480240120
0480440140
0240420240
02409A0280
0120990480
0121250500
0091448900
0052428A00
004A825200
002C815400
0025012400
0011008800
0012008800
000A005000
000C005000
0004002000
ENDCHAR
STARTCHAR 0058
ENCODING 88
SWIDTH 593 0
DWIDTH 19 0
BBX 16 26 1 0
BITMAP
E007
9009
500A
4812
2414
2424
1228
1248
0950
0590
04A0
0220
0240
0220
04A0
0590
0950
0A48
1228
2424
2814
4812
500A
9009
A005
4002
ENDCHAR
STARTCHAR 0059
ENCODING 89
SWIDTH 593 0
DWIDTH 19 0
BBX 16 26 1 0
BITMAP
E007
9009
500A
4812
2414
2424
1228
1248
0950
0590
04A0
0220
0240
0240
0240
0240
0240
0240
0240
0240
0240
0240
0240
0240
0240
0180
ENDCHAR
STARTCHAR 005A
ENCODING 90
SWIDTH 562 0
DWIDTH 18 0
BBX 16 26 1 0
BITMAP
FFFF
8002
FFF2
0014
0024
0028
0048
0050
0090
00A0
0120
0140
0240
0280
0480
0500
0900
0A00
1200
1400
2400
4800
4FFF
8001
8001
7FFE
ENDCHAR
STARTCHAR 005B
ENCODING 91
SWIDTH 343 0
DWIDTH 11 0
BBX 9 33 1 -2
BITMAP
FF80
8080
9F80
A000
A000
A000
A000
A000
A000
A000
A000
A000
A000
A000
A000
A000
A000
A000
A000
A000
A000
A000
A000
A000
A000
A000
A000
A000
A000
A000
9F80
8080
FF80
ENDCHAR
STARTCHAR 005C
ENCODING 92
SWIDTH 625 0
DWIDTH 20 0
BBX 20 31 0 -3
BITMAP
E00000
900000
900000
480000
240000
240000
120000
120000
090000
090000
048000
024000
024000
012000
012000
009000
009000
004800
002400
002400
001200
001200
000900
000500
000480
000240
000240
000120
000120
000090
000070
ENDCHAR
STARTCHAR 005D
ENCODING 93
SWIDTH 343 0
DWIDTH 11 0
BBX 9 33 1 -2
BITMAP
FF80
8080
FC80
0480
0480
0480
0480
0480
0480
0480
0480
0480
0480
0480
0480
0480
0480
0480
0480
0480
0480
0480
0480
0480
0480
0480
0480
0480
0480
0480
F880
8080
FF80
ENDCHAR
STARTCHAR 005E
ENCODING 94
SWIDTH 343 0
DWIDTH 11 0
BBX 8 6 1 22
BITMAP
3C
22
4A
59
95
62
ENDCHAR
STARTCHAR 005F
ENCODING 95
SWIDTH 500 0
DWIDTH 16 0
BBX 17 4 -1 -10
BITMAP
7FFF80
800080
800080
7FFF00
ENDCHAR
STARTCHAR 0060
ENCODING 96
SWIDTH 250 0
DWIDTH 8 0
BBX 6 7 1 21
BITMAP
E0
90
50
48
28
24
18
ENDCHAR
STARTCHAR 0061
ENCODING 97
SWIDTH 593 0
DWIDTH 19 0
BBX 17 17 1 -1
BITMAP
01C000
0E3780
100C80
23E080
4C1080
900880
900480
A00480
A00480
A00480
A00480
900880
480880
463080
21C480
180C80
07F300
ENDCHAR
STARTCHAR 0062
ENCODING 98
SWIDTH 593 0
DWIDTH 19 0
BBX 17 29 1 -1
BITMAP
E00000
A00000
A00000
A00000
A00000
A00000
A00000
A00000
A00000
A00000
A00000
A00000
A1C000
AE3800
900400
83E200
8C1200
900900
900500
A00480
A00480
A00480
A00500
900900
880900
863200
81C400
980800
67F000
ENDCHAR
STARTCHAR 0063
ENCODING 99
SWIDTH 500 0
DWIDTH 16 0
BBX 14 17 1 -1
BITMAP
01C0
0E30
100C
23E8
4C10
9000
9000
A000
A000
A000
A000
9000
4800
4638
21C4
1808
07F0
ENDCHAR
STARTCHAR 0064
ENCODING 100
SWIDTH 593 0
DWIDTH 19 0
BBX 17 29 1 -1
BITMAP
000300
000480
000480
000480
000480
000480
000480
000480
000480
000480
000480
000480
01C480
0E3480
100C80
23E080
4C1080
900880
900480
A00480
A00480
A00480
A00480
900880
480880
463080
21C480
180C80
07F300
ENDCHAR
STARTCHAR 0065
ENCODING 101
SWIDTH 593 0
DWIDTH 19 0
BBX 17 17 1 -1
BITMAP
01C000
0E3800
100400
23E200
4C1200
900900
900500
9FFC80
800080
800080
9FFF00
900000
480000
443800
23C400
180800
07F000
ENDCHAR
STARTCHAR 0066
ENCODING 102
SWIDTH 375 0
DWIDTH 12 0
BBX 11 29 1 0
BITMAP
00E0
0320
0420
08C0
1300
1400
2400
2400
2400
2400
2400
2400
2400
E700
8100
8100
6600
2400
2400
2400
2400
2400
2400
2400
2400
2400
2400
2400
1800
ENDCHAR
STARTCHAR 0067
ENCODING 103
SWIDTH 593 0
DWIDTH 19 0
BBX 17 26 1 -10
BITMAP
01C000
0E3780
100C80
23E080
4C1080
900880
900480
A00480
A00480
A00480
A00480
900880
480880
463080
21C480
180C80
07F480
000480
000480
000500
000900
081100
166200
218400
181800
07E000
ENDCHAR
STARTCHAR 0068
ENCODING 104
SWIDTH 593 0
DWIDTH 19 0
BBX 17 29 1 -1
BITMAP
E00000
A00000
A00000
A00000
A00000
A00000
A00000
A00000
A00000
A00000
A00000
A00000
A1C000
AE3800
900400
83E200
8C1200
900900
900500
A00480
A00480
A00480
A00480
A00480
A00480
A00480
A00480
A00480
400300
ENDCHAR
STARTCHAR 0069
ENCODING 105
SWIDTH 156 0
DWIDTH 5 0
BBX 3 23 1 0
BITMAP
E0
A0
E0
00
00
00
00
E0
A0
A0
A0
A0
A0
A0
A0
A0
A0
A0
A0
A0
A0
A0
40
ENDCHAR
STARTCHAR 006A
ENCODING 106
SWIDTH 218 0
DWIDTH 7 0
BBX 9 35 -3 -9
BITMAP
0380
0480
0300
0000
0000
0000
0000
0000
0000
0000
0380
0480
0480
0480
0480
0480
0480
0480
0480
0480
0480
0480
0480
0480
0480
0480
0480
0480
0480
0900
0900
3200
C400
8800
F000
ENDCHAR
STARTCHAR 006B
ENCODING 107
SWIDTH 406 0
DWIDTH 13 0
BBX 13 29 1 -1
BITMAP
E000
A000
A000
A000
A000
A000
A000
A000
A000
A000
A000
A000
A000
A1E0
A240
A480
A900
9200
8400
8800
8400
8200
9100
A880
A440
A220
A110
A088
4070
ENDCHAR
STARTCHAR 006C
ENCODING 108
SWIDTH 156 0
DWIDTH 5 0
BBX 3 29 1 -1
BITMAP
E0
A0
A0
A0
A0
A0
A0
A0
A0
A0
A0
A0
A0
A0
A0
A0
A0
A0
A0
A0
A0
A0
A0
A0
A0
A0
A0
A0
40
ENDCHAR
STARTCHAR 006D
ENCODING 109
SWIDTH 1000 0
DWIDTH 32 0
BBX 30 17 1 -1
BITMAP
01C00F00
EE3030C0
900CC030
83E31F88
8C102048
90084024
90048024
A0048014
A0048014
A0048014
A0048014
A0048014
A0048014
A0048014
A0048014
A0048014
40030008
ENDCHAR
STARTCHAR 006E
ENCODING 110
SWIDTH 593 0
DWIDTH 19 0
BBX 17 17 1 -1
BITMAP
01C000
EE3800
900400
83E200
8C1200
900900
900500
A00480
A00480
A00480
A00480
A00480
A00480
A00480
A00480
A00480
400300
ENDCHAR
STARTCHAR 006F
ENCODING 111
SWIDTH 593 0
DWIDTH 19 0
BBX 17 17 1 -1
BITMAP
01C000
0E3800
100400
23E200
4C1200
900900
900500
A00480
A00480
A00480
A00500
900900
480900
463200
21C400
180800
07F000
ENDCHAR
STARTCHAR 0070
ENCODING 112
SWIDTH 593 0
DWIDTH 19 0
BBX 17 26 1 -10
BITMAP
01C000
EE3800
900400
83E200
8C1200
900900
900500
A00480
A00480
A00480
A00500
900900
880900
863200
81C400
B80800
A7F000
A00000
A00000
A00000
A00000
A00000
A00000
A00000
A00000
400000
ENDCHAR
STARTCHAR 0071
ENCODING 113
SWIDTH 593 0
DWIDTH 19 0
BBX 17 26 1 -10
BITMAP
01C000
0E3780
100C80
23E080
4C1080
900880
900480
A00480
A00480
A00480
A00480
900880
480880
463080
21C480
180C80
07F480
000480
000480
000480
000480
000480
000480
000480
000480
000300
ENDCHAR
STARTCHAR 0072
ENCODING 114
SWIDTH 343 0
DWIDTH 11 0
BBX 9 17 1 -1
BITMAP
0100
EE80
9080
8300
8C00
9000
9000
A000
A000
A000
A000
A000
A000
A000
A000
A000
4000
ENDCHAR
STARTCHAR 0073
ENCODING 115
SWIDTH 375 0
DWIDTH 12 0
BBX 10 17 1 -1
BITMAP
0C00
3300
4100
9E00
A000
A000
9000
8E00
4100
3080
0E40
0240
0240
1240
2C80
4100
3E00
ENDCHAR
STARTCHAR 0074
ENCODING 116
SWIDTH 312 0
DWIDTH 10 0
BBX 8 26 1 0
BITMAP
3C
24
24
24
24
24
24
E7
81
81
E7
24
24
24
24
24
24
24
24
24
24
24
24
24
24
18
ENDCHAR
STARTCHAR 0075
ENCODING 117
SWIDTH 593 0
DWIDTH 19 0
BBX 16 16 1 0
BITMAP
E007
A005
A005
A005
A005
A005
A005
A005
A005
A005
9009
4811
4422
23C4
1808
07F0
ENDCHAR
STARTCHAR 0076
ENCODING 118
SWIDTH 562 0
DWIDTH 18 0
BBX 16 16 1 0
BITMAP
E007
9009
500A
4812
2814
2424
1428
1248
0A50
0990
04A0
0420
0240
0240
0180
0080
ENDCHAR
STARTCHAR 0077
ENCODING 119
SWIDTH 968 0
DWIDTH 31 0
BBX 29 16 1 0
BITMAP
E0078038
90088048
50084050
48134090
281520A0
2424A120
14289140
12485240
0A505280
09904C80
04A02500
04202100
02401200
02401200
01800C00
00800400
ENDCHAR
STARTCHAR 0078
ENCODING 120
SWIDTH 593 0
DWIDTH 19 0
BBX 20 16 0 0
BITMAP
7C03C0
220C80
111100
08A200
044400
020800
011000
010800
024400
04A200
091100
120880
240440
480220
900110
6000E0
ENDCHAR
STARTCHAR 0079
ENCODING 121
SWIDTH 593 0
DWIDTH 19 0
BBX 16 25 1 -9
BITMAP
E007
9009
500A
4812
2814
2424
1428
1248
0A50
0990
04A0
0420
0240
0240
0280
0480
0900
0900
1200
1400
2400
2800
4800
5000
2000
ENDCHAR
STARTCHAR 007A
ENCODING 122
SWIDTH 437 0
DWIDTH 14 0
BBX 12 16 1 0
BITMAP
FFF0
8020
8020
7F40
0240
0480
0500
0900
0A00
1200
2400
2800
4FF0
4010
8010
7FE0
ENDCHAR
STARTCHAR 007B
ENCODING 123
SWIDTH 375 0
DWIDTH 12 0
BBX 10 37 1 -5
BITMAP
00C0
0340
0440
0480
0500
0500
0500
0500
0500
0500
0500
0500
0500
0500
0500
0500
1900
6200
C600
3100
0D00
0500
0500
0500
0500
0500
0500
0500
0500
0500
0500
0500
0500
0480
0440
0240
01C0
ENDCHAR
STARTCHAR 007C
ENCODING 124
SWIDTH 156 0
DWIDTH 5 0
BBX 3 33 1 -2
BITMAP
E0
A0
A0
A0
A0
A0
A0
A0
A0
A0
A0
A0
A0
A0
A0
A0
A0
A0
A0
A0
A0
A0
A0
A0
A0
A0
A0
A0
A0
A0
A0
A0
E0
ENDCHAR
STARTCHAR 007D
ENCODING 125
SWIDTH 375 0
DWIDTH 12 0
BBX 10 37 1 -4
BITMAP
C000
B000
8800
4800
2800
2800
2800
2800
2800
2800
2800
2800
2800
2800
2800
2800
2600
1180
18C0
2300
2C00
2800
2800
2800
2800
2800
2800
2800
2800
2800
2800
2800
4800
4800
9000
9000
E000
ENDCHAR
STARTCHAR 007E
ENCODING 126
SWIDTH 531 0
DWIDTH 17 0
BBX 15 6 1 23
BITMAP
1E1E
6194
8064
9E08
A1B0
4040
ENDCHAR
STARTCHAR 00A0
ENCODING 160
SWIDTH 343 0
DWIDTH 11 0
BBX 0 0 0 0
BITMAP
ENDCHAR
STARTCHAR 00A1
ENCODING 161
SWIDTH 156 0
DWIDTH 5 0
BBX 3 26 1 0
BITMAP
E0
A0
E0
00
00
00
00
E0
A0
A0
A0
A0
A0
A0
A0
A0
A0
A0
A0
A0
A0
A0
A0
A0
A0
40
ENDCHAR
STARTCHAR 00A2
ENCODING 162
SWIDTH 500 0
DWIDTH 16 0
BBX 0 0 0 0
BITMAP
ENDCHAR
STARTCHAR 00A3
ENCODING 163
SWIDTH 500 0
DWIDTH 16 0
BBX 0 0 0 0
BITMAP
ENDCHAR
STARTCHAR 00A4
ENCODING 164
SWIDTH 500 0
DWIDTH 16 0
BBX 0 0 0 0
BITMAP
ENDCHAR
STARTCHAR 00A5
ENCODING 165
SWIDTH 500 0
DWIDTH 16 0
BBX 0 0 0 0
BITMAP
ENDCHAR
STARTCHAR 00A6
ENCODING 166
SWIDTH 500 0
DWIDTH 16 0
BBX 0 0 0 0
BITMAP
ENDCHAR
STARTCHAR 00A7
ENCODING 167
SWIDTH 500 0
DWIDTH 16 0
BBX 0 0 0 0
BITMAP
ENDCHAR
STARTCHAR 00A8
ENCODING 168
SWIDTH 468 0
DWIDTH 15 0
BBX 13 4 1 23
BITMAP
F058
9088
9088
7070
ENDCHAR
STARTCHAR 00A9
ENCODING 169
SWIDTH 500 0
DWIDTH 16 0
BBX 0 0 0 0
BITMAP
ENDCHAR
STARTCHAR 00AA
ENCODING 170
SWIDTH 500 0
DWIDTH 16 0
BBX 15 19 0 7
BITMAP
03C0
0C3E
318A
2662
4812
5012
900A
900A
500A
5012
4822
27C2
100A
0C7E
0380
0000
7FFE
4002
7FFE
ENDCHAR
STARTCHAR 00AB
ENCODING 171
SWIDTH 750 0
DWIDTH 24 0
BBX 22 14 1 -1
BITMAP
000004
00180C
006834
0188C4
063318
18CC60
633180
844200
633180
18CC60
063318
0188C4
006834
00180C
ENDCHAR
STARTCHAR 00AC
ENCODING 172
SWIDTH 500 0
DWIDTH 16 0
BBX 0 0 0 0
BITMAP
ENDCHAR
STARTCHAR 00AD
ENCODING 173
SWIDTH 500 0
DWIDTH 16 0
BBX 0 0 0 0
BITMAP
ENDCHAR
STARTCHAR 00AE
ENCODING 174
SWIDTH 500 0
DWIDTH 16 0
BBX 0 0 0 0
BITMAP
ENDCHAR
STARTCHAR 00AF
ENCODING 175
SWIDTH 343 0
DWIDTH 11 0
BBX 0 0 0 0
BITMAP
ENDCHAR
STARTCHAR 00B0
ENCODING 176
SWIDTH 500 0
DWIDTH 16 0
BBX 0 0 0 0
BITMAP
ENDCHAR
STARTCHAR 00B1
ENCODING 177
SWIDTH 500 0
DWIDTH 16 0
BBX 0 0 0 0
BITMAP
ENDCHAR
STARTCHAR 00B2
ENCODING 178
SWIDTH 500 0
DWIDTH 16 0
BBX 0 0 0 0
BITMAP
ENDCHAR
STARTCHAR 00B3
ENCODING 179
SWIDTH 500 0
DWIDTH 16 0
BBX 0 0 0 0
BITMAP
ENDCHAR
STARTCHAR 00B4
ENCODING 180
SWIDTH 250 0
DWIDTH 8 0
BBX 6 7 1 21
BITMAP
1C
24
48
48
90
90
60
ENDCHAR
STARTCHAR 00B5
ENCODING 181
SWIDTH 500 0
DWIDTH 16 0
BBX 0 0 0 0
BITMAP
ENDCHAR
STARTCHAR 00B6
ENCODING 182
SWIDTH 500 0
DWIDTH 16 0
BBX 0 0 0 0
BITMAP
ENDCHAR
STARTCHAR 00B7
ENCODING 183
SWIDTH 343 0
DWIDTH 11 0
BBX 0 0 0 0
BITMAP
ENDCHAR
STARTCHAR 00B8
ENCODING 184
SWIDTH 187 0
DWIDTH 6 0
BBX 5 8 0 -8
BITMAP
30
48
48
48
48
50
90
E0
ENDCHAR
STARTCHAR 00B9
ENCODING 185
SWIDTH 500 0
DWIDTH 16 0
BBX 0 0 0 0
BITMAP
ENDCHAR
STARTCHAR 00BA
ENCODING 186
SWIDTH 500 0
DWIDTH 16 0
BBX 15 19 0 7
BITMAP
03C0
0C30
3388
2464
4814
5012
900A
900A
5012
5014
4824
27C8
1010
0E60
0180
0000
7FFE
4002
7FFE
ENDCHAR
STARTCHAR 00BB
ENCODING 187
SWIDTH 750 0
DWIDTH 24 0
BBX 22 14 1 -1
BITMAP
800000
E0E000
989800
844600
633180
18CC60
063318
010884
063318
18CC60
633180
8CC600
B09800
C06000
ENDCHAR
STARTCHAR 00BC
ENCODING 188
SWIDTH 500 0
DWIDTH 16 0
BBX 0 0 0 0
BITMAP
ENDCHAR
STARTCHAR 00BD
ENCODING 189
SWIDTH 500 0
DWIDTH 16 0
BBX 0 0 0 0
BITMAP
ENDCHAR
STARTCHAR 00BE
ENCODING 190
SWIDTH 500 0
DWIDTH 16 0
BBX 0 0 0 0
BITMAP
ENDCHAR
STARTCHAR 00BF
ENCODING 191
SWIDTH 468 0
DWIDTH 15 0
BBX 13 26 1 0
BITMAP
0E00
1200
1200
0A00
0E00
3180
4080
8F00
9000
9000
9000
4F00
20C0
1820
0710
0090
0048
0048
0048
0048
0048
0090
7110
8E20
4040
3F80
ENDCHAR
STARTCHAR 00C0
ENCODING 192
SWIDTH 781 0
DWIDTH 25 0
BBX 27 34 -1 -1
BITMAP
001C0000
00140000
00120000
000A0000
00090000
00050000
00020000
00040000
000C0000
000A0000
00120000
00110000
00250000
002C8000
004A8000
00524000
00914000
00A12000
01209000
01409000
02404800
04802800
04FFE400
08000400
08000200
13FFFA00
14000900
24000500
28000480
48000280
50000240
90000140
A0000120
400000C0
ENDCHAR
STARTCHAR 00C1
ENCODING 193
SWIDTH 781 0
DWIDTH 25 0
BBX 27 34 -1 -1
BITMAP
0001C000
00028000
00048000
00050000
00090000
000A0000
00040000
00040000
000C0000
000A0000
00120000
00110000
00250000
002C8000
004A8000
00524000
00914000
00A12000
01209000
01409000
02404800
04802800
04FFE400
08000400
08000200
13FFFA00
14000900
24000500
28000480
48000280
50000240
90000140
A0000120
400000C0
ENDCHAR
STARTCHAR 00C2
ENCODING 194
SWIDTH 781 0
DWIDTH 25 0
BBX 27 34 -1 -1
BITMAP
000E0000
00110000
00110000
00248000
002A8000
007BC000
00000000
00040000
000C0000
000A0000
00120000
00110000
00250000
002C8000
004A8000
00524000
00914000
00A12000
01209000
01409000
02404800
04802800
04FFE400
08000400
08000200
13FFFA00
14000900
24000500
28000480
48000280
50000240
90000140
A0000120
400000C0
ENDCHAR
STARTCHAR 00C3
ENCODING 195
SWIDTH 781 0
DWIDTH 25 0
BBX 27 33 -1 0
BITMAP
007C3C00
00822800
0101C800
013C1000
0143E000
00800000
00040000
000C0000
000A0000
00120000
00110000
00250000
002C8000
004A8000
00524000
00914000
00A12000
01209000
01409000
02404800
04802800
04FFE400
08000400
08000200
13FFFA00
14000900
24000500
28000480
48000280
50000240
90000140
A0000120
400000C0
ENDCHAR
STARTCHAR 00C4
ENCODING 196
SWIDTH 781 0
DWIDTH 25 0
BBX 27 32 -1 0
BITMAP
00E0B000
01111000
01111000
00A0B000
00404000
00040000
000C0000
000A0000
00120000
00110000
00250000
002C8000
004A8000
00524000
00914000
00A12000
01209000
01409000
02404800
04802800
04FFE400
08000400
08000200
13FFFA00
14000900
24000500
28000480
48000280
50000240
90000140
A0000120
400000C0
ENDCHAR
STARTCHAR 00C5
ENCODING 197
SWIDTH 781 0
DWIDTH 25 0
BBX 27 34 -1 0
BITMAP
001F0000
002F0000
00318000
00318000
00328000
001D0000
000E0000
00040000
000C0000
000A0000
00120000
00110000
00250000
002C8000
004A8000
00524000
00914000
00A12000
01209000
01409000
02404800
04802800
04FFE400
08000400
08000200
13FFFA00
14000900
24000500
28000480
48000280
50000240
90000140
A0000120
400000C0
ENDCHAR
STARTCHAR 00C6
ENCODING 198
SWIDTH 1218 0
DWIDTH 39 0
BBX 40 27 -1 -1
BITMAP
0004000000
000BFFF000
0008001000
0011FFF800
0011000000
0025000000
002C800000
004A800000
0052400000
0091400000
00A1200000
0120900000
0140900000
02404FFF00
0480200080
04FFE7FF80
0800040000
0800020000
13FFFA0000
1400090000
2400050000
2800048000
4800028000
5000027FFE
9000010001
A000010001
400000FFFE
ENDCHAR
STARTCHAR 00C7
ENCODING 199
SWIDTH 781 0
DWIDTH 25 0
BBX 23 34 1 -8
BITMAP
003F80
01C060
020018
0C7FC4
118022
22001C
240000
480000
500000
900000
900000
A00000
A00000
A00000
A00000
A00000
900000
900000
500000
480000
240000
220008
110014
08C0E4
063F08
018030
007FC0
001200
001100
001200
001200
001400
002400
003800
ENDCHAR
STARTCHAR 00C8
ENCODING 200
SWIDTH 593 0
DWIDTH 19 0
BBX 17 34 1 -1
BITMAP
0E0000
090000
050000
048000
028000
024000
018000
000000
FFFF80
800080
9FFF80
A00000
A00000
A00000
A00000
A00000
A00000
A00000
A00000
A00000
9FFE00
800200
9FFE00
A00000
A00000
A00000
A00000
A00000
A00000
A00000
9FFF80
800080
800080
7FFF00
ENDCHAR
STARTCHAR 00C9
ENCODING 201
SWIDTH 531 0
DWIDTH 17 0
BBX 17 34 1 -1
BITMAP
00E000
012000
014000
024000
028000
048000
030000
000000
FFFF80
800080
9FFF80
A00000
A00000
A00000
A00000
A00000
A00000
A00000
A00000
A00000
9FFE00
800200
9FFE00
A00000
A00000
A00000
A00000
A00000
A00000
A00000
9FFF80
800080
800080
7FFF00
ENDCHAR
STARTCHAR 00CA
ENCODING 202
SWIDTH 593 0
DWIDTH 19 0
BBX 17 34 1 -1
BITMAP
01C000
024000
042000
04A000
099000
0E7000
000000
000000
FFFF80
800080
9FFF80
A00000
A00000
A00000
A00000
A00000
A00000
A00000
A00000
A00000
9FFE00
800200
9FFE00
A00000
A00000
A00000
A00000
A00000
A00000
A00000
9FFF80
800080
800080
7FFF00
ENDCHAR
STARTCHAR 00CB
ENCODING 203
SWIDTH 593 0
DWIDTH 19 0
BBX 17 32 1 0
BITMAP
3C1400
242200
242200
341400
080800
000000
FFFF80
800080
9FFF80
A00000
A00000
A00000
A00000
A00000
A00000
A00000
A00000
A00000
9FFE00
800200
9FFE00
A00000
A00000
A00000
A00000
A00000
A00000
A00000
9FFF80
800080
800080
7FFF00
ENDCHAR
STARTCHAR 00CC
ENCODING 204
SWIDTH 156 0
DWIDTH 5 0
BBX 8 34 -1 -1
BITMAP
38
24
14
12
0A
09
06
00
E0
A0
A0
A0
A0
A0
A0
A0
A0
A0
A0
A0
A0
A0
A0
A0
A0
A0
A0
A0
A0
A0
A0
A0
A0
40
ENDCHAR
STARTCHAR 00CD
ENCODING 205
SWIDTH 156 0
DWIDTH 5 0
BBX 7 34 0 -1
BITMAP
0E
12
24
24
48
50
20
00
E0
A0
A0
A0
A0
A0
A0
A0
A0
A0
A0
A0
A0
A0
A0
A0
A0
A0
A0
A0
A0
A0
A0
A0
A0
40
ENDCHAR
STARTCHAR 00CE
ENCODING 206
SWIDTH 156 0
DWIDTH 5 0
BBX 11 34 -2 -1
BITMAP
0380
0480
0840
0940
1320
1CE0
0000
0000
F000
9000
9000
9000
9000
9000
9000
9000
9000
9000
9000
9000
9000
9000
9000
9000
9000
9000
9000
9000
9000
9000
9000
9000
9000
6000
ENDCHAR
STARTCHAR 00CF
ENCODING 207
SWIDTH 156 0
DWIDTH 5 0
BBX 18 32 -4 0
BITMAP
038280
048440
048440
028280
010100
000000
E00000
A00000
A00000
A00000
A00000
A00000
A00000
A00000
A00000
A00000
A00000
A00000
A00000
A00000
A00000
A00000
A00000
A00000
A00000
A00000
A00000
A00000
A00000
A00000
A00000
400000
ENDCHAR
STARTCHAR 00D0
ENCODING 208
SWIDTH 500 0
DWIDTH 16 0
BBX 0 0 0 0
BITMAP
ENDCHAR
STARTCHAR 00D1
ENCODING 209
SWIDTH 406 0
DWIDTH 13 0
BBX 17 33 -1 0
BITMAP
078780
182500
201900
278200
287C00
100000
800000
80E000
C0A000
C0A000
A0A000
A0A000
90A000
90A000
88A000
88A000
84A000
94A000
92A000
AAA000
A9A000
A4A000
A4A000
A22000
A22000
A12000
A12000
A0A000
A0A000
A06000
A06000
A02000
400000
ENDCHAR
STARTCHAR 00D2
ENCODING 210
SWIDTH 343 0
DWIDTH 11 0
BBX 0 0 0 0
BITMAP
ENDCHAR
STARTCHAR 00D3
ENCODING 211
SWIDTH 906 0
DWIDTH 29 0
BBX 27 34 1 -1
BITMAP
00038000
00050000
00090000
000A0000
00120000
00140000
00080000
003F8000
01C06000
02001800
0C7F8400
11806200
22001900
24000480
48000280
48000240
90000140
90000120
A0000120
A0000120
A0000120
A0000120
A0000120
A0000120
90000140
50000240
48000480
24000480
22000900
11001200
08E0E400
061F0800
01803000
007FC000
ENDCHAR
STARTCHAR 00D4
ENCODING 212
SWIDTH 906 0
DWIDTH 29 0
BBX 27 34 1 -1
BITMAP
000E0000
00110000
00110000
00248000
002A8000
007BC000
00000000
003F8000
01C06000
02001800
0C7F8400
11806200
22001900
24000480
48000280
48000240
90000140
90000120
A0000120
A0000120
A0000120
A0000120
A0000120
A0000120
90000140
50000240
48000480
24000480
22000900
11001200
08E0E400
061F0800
01803000
007FC000
ENDCHAR
STARTCHAR 00D5
ENCODING 213
SWIDTH 906 0
DWIDTH 29 0
BBX 27 33 1 0
BITMAP
007C3800
00824800
01118800
026C1000
0243E000
01800000
003F8000
01C06000
02001800
0C7F8400
11806200
22001900
24000480
48000280
48000240
90000140
90000120
A0000120
A0000120
A0000120
A0000120
A0000120
A0000120
90000140
50000240
48000480
24000480
22000900
11001200
08E0E400
061F0800
01803000
007FC000
ENDCHAR
STARTCHAR 00D6
ENCODING 214
SWIDTH 906 0
DWIDTH 29 0
BBX 27 32 1 0
BITMAP
00E0B000
01111000
01211000
00A0B000
00404000
003F8000
01C06000
02001800
0C7F8400
11806200
22001900
24000480
48000280
48000240
90000140
90000120
A0000120
A0000120
A0000120
A0000120
A0000120
A0000120
90000140
50000240
48000480
24000480
22000900
11001200
08E0E400
061F0800
01803000
007FC000
ENDCHAR
STARTCHAR 00D7
ENCODING 215
SWIDTH 500 0
DWIDTH 16 0
BBX 0 0 0 0
BITMAP
ENDCHAR
STARTCHAR 00D8
ENCODING 216
SWIDTH 906 0
DWIDTH 29 0
BBX 27 27 1 -1
BITMAP
003F9E00
01C06400
02000800
0C7FC400
11808200
22009900
24012480
48012280
48024240
90048140
90048120
A0090120
A0090120
A0120120
A0140120
A0240120
90480120
90480140
50900240
48900480
25200480
22400900
10401200
0860E400
041F0800
09803000
0E7FC000
ENDCHAR
STARTCHAR 00D9
ENCODING 217
SWIDTH 593 0
DWIDTH 19 0
BBX 16 34 1 -1
BITMAP
0F00
0900
0480
0280
0240
0140
0080
0000
E007
A005
A005
A005
A005
A005
A005
A005
A005
A005
A005
A005
A005
A005
A005
A005
A005
A005
A005
A005
9009
4811
4422
23C4
1808
07F0
ENDCHAR
STARTCHAR 00DA
ENCODING 218
SWIDTH 593 0
DWIDTH 19 0
BBX 16 34 1 -1
BITMAP
00E0
0120
0140
0240
0280
0480
0300
0000
E007
A005
A005
A005
A005
A005
A005
A005
A005
A005
A005
A005
A005
A005
A005
A005
A005
A005
A005
A005
9009
4811
4422
23C4
1808
07F0
ENDCHAR
STARTCHAR 00DB
ENCODING 219
SWIDTH 593 0
DWIDTH 19 0
BBX 16 34 1 -1
BITMAP
01C0
0240
0420
04A0
0990
0E70
0000
0000
E007
A005
A005
A005
A005
A005
A005
A005
A005
A005
A005
A005
A005
A005
A005
A005
A005
A005
A005
A005
9009
4811
4422
23C4
1808
07F0
ENDCHAR
STARTCHAR 00DC
ENCODING 220
SWIDTH 593 0
DWIDTH 19 0
BBX 16 32 1 0
BITMAP
3C14
2422
2422
3414
0808
0000
E007
A005
A005
A005
A005
A005
A005
A005
A005
A005
A005
A005
A005
A005
A005
A005
A005
A005
A005
A005
9009
4811
4422
23C4
1808
07F0
ENDCHAR
STARTCHAR 00DD
ENCODING 221
SWIDTH 343 0
DWIDTH 11 0
BBX 0 0 0 0
BITMAP
ENDCHAR
STARTCHAR 00DE
ENCODING 222
SWIDTH 500 0
DWIDTH 16 0
BBX 0 0 0 0
BITMAP
ENDCHAR
STARTCHAR 00DF
ENCODING 223
SWIDTH 593 0
DWIDTH 19 0
BBX 17 27 1 -1
BITMAP
03C000
EC3000
900800
83E400
841200
881200
901200
A01200
A01200
A02400
A0C400
A08800
A08400
A0E200
A01100
A00900
A00500
A00480
A00480
A00480
A00500
A00900
A80900
963200
A1C400
980800
67F000
ENDCHAR
STARTCHAR 00E0
ENCODING 224
SWIDTH 593 0
DWIDTH 19 0
BBX 17 26 1 0
BITMAP
070000
048000
024000
024000
012000
00C000
000000
000000
000000
01C000
0E3780
100C80
23E080
4C1080
900880
900480
A00480
A00480
A00480
A00480
900880
480880
463080
21C480
180C80
07F300
ENDCHAR
STARTCHAR 00E1
ENCODING 225
SWIDTH 593 0
DWIDTH 19 0
BBX 17 26 1 0
BITMAP
00F000
00A000
012000
014000
024000
018000
000000
000000
000000
01C000
0E3780
100C80
23E080
4C1080
900880
900480
A00480
A00480
A00480
A00480
900880
480880
463080
21C480
180C80
07F300
ENDCHAR
STARTCHAR 00E2
ENCODING 226
SWIDTH 593 0
DWIDTH 19 0
BBX 17 26 1 0
BITMAP
03C000
022000
04A000
059000
095000
0E7000
000000
000000
000000
01C000
0E3780
100C80
23E080
4C1080
900880
900480
A00480
A00480
A00480
A00480
900880
480880
463080
21C480
180C80
07F300
ENDCHAR
STARTCHAR 00E3
ENCODING 227
SWIDTH 593 0
DWIDTH 19 0
BBX 17 26 1 0
BITMAP
0F8F00
304900
223200
4D0200
70FC00
000000
000000
000000
000000
01C000
0E3780
100C80
23E080
4C1080
900880
900480
A00480
A00480
A00480
A00480
900880
480880
463080
21C480
180C80
07F300
ENDCHAR
STARTCHAR 00E4
ENCODING 228
SWIDTH 593 0
DWIDTH 19 0
BBX 17 26 1 0
BITMAP
3C1400
442200
242200
241400
180800
000000
000000
000000
000000
01C000
0E3780
100C80
23E080
4C1080
900880
900480
A00480
A00480
A00480
A00480
900880
480880
463080
21C480
180C80
07F300
ENDCHAR
STARTCHAR 00E5
ENCODING 229
SWIDTH 593 0
DWIDTH 19 0
BBX 17 27 1 -1
BITMAP
01C000
06A000
075000
0A3000
065000
05E000
03C000
000000
000000
000000
01C000
0E3780
100C80
23E080
4C1080
900880
900480
A00480
A00480
A00480
A00480
900880
480880
463080
21C480
180C80
07F300
ENDCHAR
STARTCHAR 00E6
ENCODING 230
SWIDTH 1000 0
DWIDTH 32 0
BBX 30 17 1 -1
BITMAP
01C78E00
0E34F1C0
100C8020
23E01F10
4C1020C8
90084028
90048024
A004FFE4
A0040004
A0040004
A004FFF8
90088000
48084040
463031A0
21C48E20
180CC040
07F7BF80
ENDCHAR
STARTCHAR 00E7
ENCODING 231
SWIDTH 500 0
DWIDTH 16 0
BBX 14 24 1 -8
BITMAP
01C0
0E30
100C
23E8
4C10
9000
9000
A000
A000
A000
A000
9000
4800
4638
21C4
1808
07F0
0240
0220
0240
0240
0280
0480
0700
ENDCHAR
STARTCHAR 00E8
ENCODING 232
SWIDTH 593 0
DWIDTH 19 0
BBX 17 26 1 0
BITMAP
070000
048000
028000
024000
014000
008000
000000
000000
000000
01C000
0E3800
100400
23E200
4C1200
900900
900500
9FFC80
800080
800080
9FFF00
900000
480000
443800
23C400
180800
07F000
ENDCHAR
STARTCHAR 00E9
ENCODING 233
SWIDTH 593 0
DWIDTH 19 0
BBX 17 26 1 0
BITMAP
00F000
012000
012000
024000
024000
018000
000000
000000
000000
01C000
0E3800
100400
23E200
4C1200
900900
900500
9FFC80
800080
800080
9FFF00
900000
480000
443800
23C400
180800
07F000
ENDCHAR
STARTCHAR 00EA
ENCODING 234
SWIDTH 593 0
DWIDTH 19 0
BBX 17 26 1 0
BITMAP
03C000
022000
04A000
059000
095000
0E3000
000000
000000
000000
01C000
0E3800
100400
23E200
4C1200
900900
900500
9FFC80
800080
800080
9FFF00
900000
480000
443800
23C400
180800
07F000
ENDCHAR
STARTCHAR 00EB
ENCODING 235
SWIDTH 593 0
DWIDTH 19 0
BBX 17 26 1 0
BITMAP
3C1400
242200
242200
241400
180800
000000
000000
000000
000000
01C000
0E3800
100400
23E200
4C1200
900900
900500
9FFC80
800080
800080
9FFF00
900000
480000
443800
23C400
180800
07F000
ENDCHAR
STARTCHAR 00EC
ENCODING 236
SWIDTH 156 0
DWIDTH 5 0
BBX 8 26 -1 0
BITMAP
3C
24
12
12
09
06
00
00
00
00
F0
90
90
90
90
90
90
90
90
90
90
90
90
90
90
60
ENDCHAR
STARTCHAR 00ED
ENCODING 237
SWIDTH 156 0
DWIDTH 5 0
BBX 8 26 -1 0
BITMAP
0F
0A
12
14
24
38
00
00
00
00
70
90
90
90
90
90
90
90
90
90
90
90
90
90
90
60
ENDCHAR
STARTCHAR 00EE
ENCODING 238
SWIDTH 156 0
DWIDTH 5 0
BBX 11 26 -2 0
BITMAP
0780
0440
0940
0B20
12A0
1CE0
0000
0000
0000
0000
F000
9000
9000
9000
9000
9000
9000
9000
9000
9000
9000
9000
9000
9000
9000
6000
ENDCHAR
STARTCHAR 00EF
ENCODING 239
SWIDTH 156 0
DWIDTH 5 0
BBX 18 26 -4 0
BITMAP
038280
048440
048440
068280
010100
000000
000000
000000
000000
000000
F00000
900000
900000
900000
900000
900000
900000
900000
900000
900000
900000
900000
900000
900000
900000
600000
ENDCHAR
STARTCHAR 00F0
ENCODING 240
SWIDTH 500 0
DWIDTH 16 0
BBX 0 0 0 0
BITMAP
ENDCHAR
STARTCHAR 00F1
ENCODING 241
SWIDTH 593 0
DWIDTH 19 0
BBX 17 26 1 0
BITMAP
1F0F00
204A00
463200
490400
70F800
000000
000000
000000
000000
01C000
EE3800
900400
83E200
8C1200
900900
900500
A00480
A00480
A00480
A00480
A00480
A00480
A00480
A00480
A00480
400300
ENDCHAR
STARTCHAR 00F2
ENCODING 242
SWIDTH 593 0
DWIDTH 19 0
BBX 17 26 1 0
BITMAP
078000
048000
024000
024000
012000
00C000
000000
000000
000000
01C000
0E3800
100400
23E200
4C1200
900900
900500
A00480
A00480
A00480
A00500
900900
480900
463200
21C400
180800
07F000
ENDCHAR
STARTCHAR 00F3
ENCODING 243
SWIDTH 593 0
DWIDTH 19 0
BBX 17 26 1 0
BITMAP
00F000
00A000
012000
014000
024000
018000
000000
000000
000000
01C000
0E3800
100400
23E200
4C1200
900900
900500
A00480
A00480
A00480
A00500
900900
480900
463200
21C400
180800
07F000
ENDCHAR
STARTCHAR 00F4
ENCODING 244
SWIDTH 593 0
DWIDTH 19 0
BBX 17 26 1 0
BITMAP
03C000
022000
04A000
049000
095000
0E3000
000000
000000
000000
01C000
0E3800
100400
23E200
4C1200
900900
900500
A00480
A00480
A00480
A00500
900900
480900
463200
21C400
180800
07F000
ENDCHAR
STARTCHAR 00F5
ENCODING 245
SWIDTH 593 0
DWIDTH 19 0
BBX 17 26 1 0
BITMAP
1F0F00
204A00
463200
490400
70F800
000000
000000
000000
000000
01C000
0E3800
100400
23E200
4C1200
900900
900500
A00480
A00480
A00480
A00500
900900
480900
463200
21C400
180800
07F000
ENDCHAR
STARTCHAR 00F6
ENCODING 246
SWIDTH 593 0
DWIDTH 19 0
BBX 17 26 1 0
BITMAP
1C1E00
221200
221200
141200
080C00
000000
000000
000000
000000
01C000
0E3800
100400
23E200
4C1200
900900
900500
A00480
A00480
A00480
A00500
900900
480900
463200
21C400
180800
07F000
ENDCHAR
STARTCHAR 00F7
ENCODING 247
SWIDTH 500 0
DWIDTH 16 0
BBX 0 0 0 0
BITMAP
ENDCHAR
STARTCHAR 00F8
ENCODING 248
SWIDTH 593 0
DWIDTH 19 0
BBX 17 17 1 -1
BITMAP
01DE00
0E2400
100400
23C200
4C9200
909900
912500
A12480
A24480
A24480
A48500
990900
490900
423200
21C400
200800
3FF000
ENDCHAR
STARTCHAR 00F9
ENCODING 249
SWIDTH 593 0
DWIDTH 19 0
BBX 16 27 1 -1
BITMAP
0380
0240
0140
0120
00A0
00F0
0000
0000
0000
0000
0000
E007
A005
A005
A005
A005
A005
A005
A005
A005
A005
9009
4811
4422
23C4
1808
07F0
ENDCHAR
STARTCHAR 00FA
ENCODING 250
SWIDTH 593 0
DWIDTH 19 0
BBX 16 26 1 0
BITMAP
00F0
00A0
0120
0140
0240
0180
0000
0000
0000
0000
E007
A005
A005
A005
A005
A005
A005
A005
A005
A005
9009
4811
4422
23C4
1808
07F0
ENDCHAR
STARTCHAR 00FB
ENCODING 251
SWIDTH 593 0
DWIDTH 19 0
BBX 16 27 1 -1
BITMAP
01C0
0240
0420
0490
0990
0E78
0000
0000
0000
0000
0000
E007
A005
A005
A005
A005
A005
A005
A005
A005
A005
9009
4811
4422
23C4
1808
07F0
ENDCHAR
STARTCHAR 00FC
ENCODING 252
SWIDTH 593 0
DWIDTH 19 0
BBX 16 26 1 0
BITMAP
3C1C
4422
4422
2414
1808
0000
0000
0000
0000
0000
E007
A005
A005
A005
A005
A005
A005
A005
A005
A005
9009
4811
4422
23C4
1808
07F0
ENDCHAR
STARTCHAR 00FD
ENCODING 253
SWIDTH 343 0
DWIDTH 11 0
BBX 0 0 0 0
BITMAP
ENDCHAR
STARTCHAR 00FE
ENCODING 254
SWIDTH 500 0
DWIDTH 16 0
BBX 0 0 0 0
BITMAP
ENDCHAR
STARTCHAR 00FF
ENCODING 255
SWIDTH 593 0
DWIDTH 19 0
BBX 16 35 1 -9
BITMAP
3C1C
4422
4422
2414
1808
0000
0000
0000
0000
0000
E007
9009
500A
4812
2814
2424
1428
1248
0A50
0990
04A0
0420
0240
0240
0280
0480
0900
0900
1200
1400
2400
2800
4800
5000
2000
ENDCHAR
STARTCHAR 0102
ENCODING 258
SWIDTH 343 0
DWIDTH 11 0
BBX 0 0 0 0
BITMAP
ENDCHAR
STARTCHAR 0103
ENCODING 259
SWIDTH 343 0
DWIDTH 11 0
BBX 0 0 0 0
BITMAP
ENDCHAR
STARTCHAR 0104
ENCODING 260
SWIDTH 343 0
DWIDTH 11 0
BBX 0 0 0 0
BITMAP
ENDCHAR
STARTCHAR 0105
ENCODING 261
SWIDTH 343 0
DWIDTH 11 0
BBX 0 0 0 0
BITMAP
ENDCHAR
STARTCHAR 0106
ENCODING 262
SWIDTH 343 0
DWIDTH 11 0
BBX 0 0 0 0
BITMAP
ENDCHAR
STARTCHAR 0107
ENCODING 263
SWIDTH 343 0
DWIDTH 11 0
BBX 0 0 0 0
BITMAP
ENDCHAR
STARTCHAR 010C
ENCODING 268
SWIDTH 343 0
DWIDTH 11 0
BBX 0 0 0 0
BITMAP
ENDCHAR
STARTCHAR 010D
ENCODING 269
SWIDTH 343 0
DWIDTH 11 0
BBX 0 0 0 0
BITMAP
ENDCHAR
STARTCHAR 010E
ENCODING 270
SWIDTH 343 0
DWIDTH 11 0
BBX 0 0 0 0
BITMAP
ENDCHAR
STARTCHAR 010F
ENCODING 271
SWIDTH 343 0
DWIDTH 11 0
BBX 0 0 0 0
BITMAP
ENDCHAR
STARTCHAR 0110
ENCODING 272
SWIDTH 343 0
DWIDTH 11 0
BBX 0 0 0 0
BITMAP
ENDCHAR
STARTCHAR 0111
ENCODING 273
SWIDTH 343 0
DWIDTH 11 0
BBX 0 0 0 0
BITMAP
ENDCHAR
STARTCHAR 0118
ENCODING 280
SWIDTH 343 0
DWIDTH 11 0
BBX 0 0 0 0
BITMAP
ENDCHAR
STARTCHAR 0119
ENCODING 281
SWIDTH 343 0
DWIDTH 11 0
BBX 0 0 0 0
BITMAP
ENDCHAR
STARTCHAR 011A
ENCODING 282
SWIDTH 343 0
DWIDTH 11 0
BBX 0 0 0 0
BITMAP
ENDCHAR
STARTCHAR 011B
ENCODING 283
SWIDTH 343 0
DWIDTH 11 0
BBX 0 0 0 0
BITMAP
ENDCHAR
STARTCHAR 011E
ENCODING 286
SWIDTH 343 0
DWIDTH 11 0
BBX 0 0 0 0
BITMAP
ENDCHAR
STARTCHAR 011F
ENCODING 287
SWIDTH 343 0
DWIDTH 11 0
BBX 0 0 0 0
BITMAP
ENDCHAR
STARTCHAR 0130
ENCODING 304
SWIDTH 343 0
DWIDTH 11 0
BBX 0 0 0 0
BITMAP
ENDCHAR
STARTCHAR 0131
ENCODING 305
SWIDTH 156 0
DWIDTH 5 0
BBX 3 16 1 0
BITMAP
E0
A0
A0
A0
A0
A0
A0
A0
A0
A0
A0
A0
A0
A0
A0
40
ENDCHAR
STARTCHAR 0139
ENCODING 313
SWIDTH 343 0
DWIDTH 11 0
BBX 0 0 0 0
BITMAP
ENDCHAR
STARTCHAR 013A
ENCODING 314
SWIDTH 343 0
DWIDTH 11 0
BBX 0 0 0 0
BITMAP
ENDCHAR
STARTCHAR 013D
ENCODING 317
SWIDTH 343 0
DWIDTH 11 0
BBX 0 0 0 0
BITMAP
ENDCHAR
STARTCHAR 013E
ENCODING 318
SWIDTH 343 0
DWIDTH 11 0
BBX 0 0 0 0
BITMAP
ENDCHAR
STARTCHAR 013F
ENCODING 319
SWIDTH 343 0
DWIDTH 11 0
BBX 0 0 0 0
BITMAP
ENDCHAR
STARTCHAR 0140
ENCODING 320
SWIDTH 343 0
DWIDTH 11 0
BBX 0 0 0 0
BITMAP
ENDCHAR
STARTCHAR 0141
ENCODING 321
SWIDTH 500 0
DWIDTH 16 0
BBX 0 0 0 0
BITMAP
ENDCHAR
STARTCHAR 0142
ENCODING 322
SWIDTH 500 0
DWIDTH 16 0
BBX 0 0 0 0
BITMAP
ENDCHAR
STARTCHAR 0143
ENCODING 323
SWIDTH 343 0
DWIDTH 11 0
BBX 0 0 0 0
BITMAP
ENDCHAR
STARTCHAR 0144
ENCODING 324
SWIDTH 343 0
DWIDTH 11 0
BBX 0 0 0 0
BITMAP
ENDCHAR
STARTCHAR 0147
ENCODING 327
SWIDTH 343 0
DWIDTH 11 0
BBX 0 0 0 0
BITMAP
ENDCHAR
STARTCHAR 0148
ENCODING 328
SWIDTH 343 0
DWIDTH 11 0
BBX 0 0 0 0
BITMAP
ENDCHAR
STARTCHAR 0150
ENCODING 336
SWIDTH 343 0
DWIDTH 11 0
BBX 0 0 0 0
BITMAP
ENDCHAR
STARTCHAR 0151
ENCODING 337
SWIDTH 343 0
DWIDTH 11 0
BBX 0 0 0 0
BITMAP
ENDCHAR
STARTCHAR 0152
ENCODING 338
SWIDTH 1281 0
DWIDTH 41 0
BBX 41 27 -1 -1
BITMAP
001F80000000
00E070FFFF80
03000C800080
043DC29FFF80
08C031900000
110008900000
220004100000
240002100000
480001100000
480001100000
500000900000
900000900000
900000900000
9000008FFE00
900000800200
9000009FFE00
500000900000
480001100000
480001100000
240002100000
220004100000
110004900000
088019900000
0470629FFF80
020F84800080
01C018800080
003FE07FFF00
ENDCHAR
STARTCHAR 0153
ENCODING 339
SWIDTH 1000 0
DWIDTH 32 0
BBX 30 17 1 -1
BITMAP
01C00E00
0E3071C0
100C8020
23E31F10
4C1020C8
90084028
90048024
A004FFE4
A0040004
A0040004
A004FFF8
90088000
48084040
463331A0
21C48E20
18084040
07F03F80
ENDCHAR
STARTCHAR 0154
ENCODING 340
SWIDTH 343 0
DWIDTH 11 0
BBX 0 0 0 0
BITMAP
ENDCHAR
STARTCHAR 0155
ENCODING 341
SWIDTH 343 0
DWIDTH 11 0
BBX 0 0 0 0
BITMAP
ENDCHAR
STARTCHAR 0158
ENCODING 344
SWIDTH 343 0
DWIDTH 11 0
BBX 0 0 0 0
BITMAP
ENDCHAR
STARTCHAR 0159
ENCODING 345
SWIDTH 343 0
DWIDTH 11 0
BBX 0 0 0 0
BITMAP
ENDCHAR
STARTCHAR 015A
ENCODING 346
SWIDTH 343 0
DWIDTH 11 0
BBX 0 0 0 0
BITMAP
ENDCHAR
STARTCHAR 015B
ENCODING 347
SWIDTH 343 0
DWIDTH 11 0
BBX 0 0 0 0
BITMAP
ENDCHAR
STARTCHAR 015E
ENCODING 350
SWIDTH 343 0
DWIDTH 11 0
BBX 0 0 0 0
BITMAP
ENDCHAR
STARTCHAR 015F
ENCODING 351
SWIDTH 343 0
DWIDTH 11 0
BBX 0 0 0 0
BITMAP
ENDCHAR
STARTCHAR 0160
ENCODING 352
SWIDTH 500 0
DWIDTH 16 0
BBX 0 0 0 0
BITMAP
ENDCHAR
STARTCHAR 0161
ENCODING 353
SWIDTH 500 0
DWIDTH 16 0
BBX 0 0 0 0
BITMAP
ENDCHAR
STARTCHAR 0162
ENCODING 354
SWIDTH 343 0
DWIDTH 11 0
BBX 0 0 0 0
BITMAP
ENDCHAR
STARTCHAR 0163
ENCODING 355
SWIDTH 343 0
DWIDTH 11 0
BBX 0 0 0 0
BITMAP
ENDCHAR
STARTCHAR 0164
ENCODING 356
SWIDTH 343 0
DWIDTH 11 0
BBX 0 0 0 0
BITMAP
ENDCHAR
STARTCHAR 0165
ENCODING 357
SWIDTH 343 0
DWIDTH 11 0
BBX 0 0 0 0
BITMAP
ENDCHAR
STARTCHAR 016E
ENCODING 366
SWIDTH 343 0
DWIDTH 11 0
BBX 0 0 0 0
BITMAP
ENDCHAR
STARTCHAR 016F
ENCODING 367
SWIDTH 343 0
DWIDTH 11 0
BBX 0 0 0 0
BITMAP
ENDCHAR
STARTCHAR 0170
ENCODING 368
SWIDTH 343 0
DWIDTH 11 0
BBX 0 0 0 0
BITMAP
ENDCHAR
STARTCHAR 0171
ENCODING 369
SWIDTH 343 0
DWIDTH 11 0
BBX 0 0 0 0
BITMAP
ENDCHAR
STARTCHAR 0178
ENCODING 376
SWIDTH 593 0
DWIDTH 19 0
BBX 16 32 1 0
BITMAP
1C16
2222
2422
1416
0808
0000
E007
9009
500A
4812
2414
2424
1228
1248
0950
0590
04A0
0220
0240
0240
0240
0240
0240
0240
0240
0240
0240
0240
0240
0240
0240
0180
ENDCHAR
STARTCHAR 0179
ENCODING 377
SWIDTH 343 0
DWIDTH 11 0
BBX 0 0 0 0
BITMAP
ENDCHAR
STARTCHAR 017A
ENCODING 378
SWIDTH 343 0
DWIDTH 11 0
BBX 0 0 0 0
BITMAP
ENDCHAR
STARTCHAR 017B
ENCODING 379
SWIDTH 343 0
DWIDTH 11 0
BBX 0 0 0 0
BITMAP
ENDCHAR
STARTCHAR 017C
ENCODING 380
SWIDTH 343 0
DWIDTH 11 0
BBX 0 0 0 0
BITMAP
ENDCHAR
STARTCHAR 017D
ENCODING 381
SWIDTH 500 0
DWIDTH 16 0
BBX 0 0 0 0
BITMAP
ENDCHAR
STARTCHAR 017E
ENCODING 382
SWIDTH 500 0
DWIDTH 16 0
BBX 0 0 0 0
BITMAP
ENDCHAR
STARTCHAR 0192
ENCODING 402
SWIDTH 500 0
DWIDTH 16 0
BBX 0 0 0 0
BITMAP
ENDCHAR
STARTCHAR 02BA
ENCODING 698
SWIDTH 500 0
DWIDTH 16 0
BBX 0 0 0 0
BITMAP
ENDCHAR
STARTCHAR 02C6
ENCODING 710
SWIDTH 531 0
DWIDTH 17 0
BBX 15 6 1 23
BITMAP
1E1E
6114
80E4
9E08
A1B0
4040
ENDCHAR
STARTCHAR 02C7
ENCODING 711
SWIDTH 500 0
DWIDTH 16 0
BBX 0 0 0 0
BITMAP
ENDCHAR
STARTCHAR 02C9
ENCODING 713
SWIDTH 500 0
DWIDTH 16 0
BBX 0 0 0 0
BITMAP
ENDCHAR
STARTCHAR 02D8
ENCODING 728
SWIDTH 500 0
DWIDTH 16 0
BBX 0 0 0 0
BITMAP
ENDCHAR
STARTCHAR 02D9
ENCODING 729
SWIDTH 500 0
DWIDTH 16 0
BBX 0 0 0 0
BITMAP
ENDCHAR
STARTCHAR 02DA
ENCODING 730
SWIDTH 281 0
DWIDTH 9 0
BBX 7 7 1 22
BITMAP
7C
BC
C6
C6
CA
74
38
ENDCHAR
STARTCHAR 02DB
ENCODING 731
SWIDTH 500 0
DWIDTH 16 0
BBX 0 0 0 0
BITMAP
ENDCHAR
STARTCHAR 02DC
ENCODING 732
SWIDTH 343 0
DWIDTH 11 0
BBX 8 6 1 22
BITMAP
3C
22
4A
59
95
62
ENDCHAR
STARTCHAR 0393
ENCODING 915
SWIDTH 500 0
DWIDTH 16 0
BBX 0 0 0 0
BITMAP
ENDCHAR
STARTCHAR 0398
ENCODING 920
SWIDTH 500 0
DWIDTH 16 0
BBX 0 0 0 0
BITMAP
ENDCHAR
STARTCHAR 03A3
ENCODING 931
SWIDTH 500 0
DWIDTH 16 0
BBX 0 0 0 0
BITMAP
ENDCHAR
STARTCHAR 03A6
ENCODING 934
SWIDTH 500 0
DWIDTH 16 0
BBX 0 0 0 0
BITMAP
ENDCHAR
STARTCHAR 03A9
ENCODING 937
SWIDTH 500 0
DWIDTH 16 0
BBX 0 0 0 0
BITMAP
ENDCHAR
STARTCHAR 03B1
ENCODING 945
SWIDTH 500 0
DWIDTH 16 0
BBX 0 0 0 0
BITMAP
ENDCHAR
STARTCHAR 03B4
ENCODING 948
SWIDTH 500 0
DWIDTH 16 0
BBX 0 0 0 0
BITMAP
ENDCHAR
STARTCHAR 03B5
ENCODING 949
SWIDTH 500 0
DWIDTH 16 0
BBX 0 0 0 0
BITMAP
ENDCHAR
STARTCHAR 03C0
ENCODING 960
SWIDTH 500 0
DWIDTH 16 0
BBX 0 0 0 0
BITMAP
ENDCHAR
STARTCHAR 03C3
ENCODING 963
SWIDTH 343 0
DWIDTH 11 0
BBX 0 0 0 0
BITMAP
ENDCHAR
STARTCHAR 03C4
ENCODING 964
SWIDTH 500 0
DWIDTH 16 0
BBX 0 0 0 0
BITMAP
ENDCHAR
STARTCHAR 03C6
ENCODING 966
SWIDTH 343 0
DWIDTH 11 0
BBX 0 0 0 0
BITMAP
ENDCHAR
STARTCHAR 2013
ENCODING 8211
SWIDTH 593 0
DWIDTH 19 0
BBX 17 3 1 8
BITMAP
FFFF80
800080
FFFF80
ENDCHAR
STARTCHAR 2014
ENCODING 8212
SWIDTH 1093 0
DWIDTH 35 0
BBX 33 3 1 8
BITMAP
FFFFFFFF80
8000000080
FFFFFFFF80
ENDCHAR
STARTCHAR 2017
ENCODING 8215
SWIDTH 500 0
DWIDTH 16 0
BBX 0 0 0 0
BITMAP
ENDCHAR
STARTCHAR 2018
ENCODING 8216
SWIDTH 187 0
DWIDTH 6 0
BBX 5 8 1 21
BITMAP
70
90
90
80
50
48
28
10
ENDCHAR
STARTCHAR 2019
ENCODING 8217
SWIDTH 187 0
DWIDTH 6 0
BBX 5 8 0 21
BITMAP
38
48
48
48
48
90
90
60
ENDCHAR
STARTCHAR 201A
ENCODING 8218
SWIDTH 187 0
DWIDTH 6 0
BBX 6 8 -2 -3
BITMAP
38
44
44
28
48
50
90
60
ENDCHAR
STARTCHAR 201C
ENCODING 8220
SWIDTH 375 0
DWIDTH 12 0
BBX 11 8 1 21
BITMAP
71C0
9240
9240
9200
5140
4920
28A0
1040
ENDCHAR
STARTCHAR 201D
ENCODING 8221
SWIDTH 375 0
DWIDTH 12 0
BBX 11 8 0 21
BITMAP
71E0
8A20
8A20
4920
5140
9240
A280
4100
ENDCHAR
STARTCHAR 201E
ENCODING 8222
SWIDTH 375 0
DWIDTH 12 0
BBX 12 8 -2 -3
BITMAP
38E0
4510
4510
28A0
4920
5140
9240
6180
ENDCHAR
STARTCHAR 2020
ENCODING 8224
SWIDTH 500 0
DWIDTH 16 0
BBX 0 0 0 0
BITMAP
ENDCHAR
STARTCHAR 2021
ENCODING 8225
SWIDTH 500 0
DWIDTH 16 0
BBX 0 0 0 0
BITMAP
ENDCHAR
STARTCHAR 2022
ENCODING 8226
SWIDTH 375 0
DWIDTH 12 0
BBX 10 10 1 10
BITMAP
1C00
2300
C080
8080
8040
8040
8080
8080
4100
3E00
ENDCHAR
STARTCHAR 2026
ENCODING 8230
SWIDTH 593 0
DWIDTH 19 0
BBX 17 5 1 0
BITMAP
71C780
922480
922880
914480
608300
ENDCHAR
STARTCHAR 2030
ENCODING 8240
SWIDTH 968 0
DWIDTH 31 0
BBX 30 26 1 0
BITMAP
3E03C000
41048000
8C848000
92890000
A24A0000
A2920000
9CA40000
40A40000
23480000
1C480000
00900000
01200000
01200000
02400000
02400000
04800000
049F03E0
09608410
124C48C8
12924928
24924A24
24924A28
484C49C8
50408408
90330230
600C01C0
ENDCHAR
STARTCHAR 2039
ENCODING 8249
SWIDTH 468 0
DWIDTH 15 0
BBX 13 13 1 0
BITMAP
0018
0068
0188
0630
18C0
6300
8400
6300
18C0
0630
0188
0068
0018
ENDCHAR
STARTCHAR 203A
ENCODING 8250
SWIDTH 468 0
DWIDTH 15 0
BBX 13 14 1 -1
BITMAP
8000
E000
9800
8400
6300
18C0
0630
0108
0630
18C0
6300
8C00
B000
C000
ENDCHAR
STARTCHAR 203C
ENCODING 8252
SWIDTH 500 0
DWIDTH 16 0
BBX 0 0 0 0
BITMAP
ENDCHAR
STARTCHAR 207F
ENCODING 8319
SWIDTH 500 0
DWIDTH 16 0
BBX 0 0 0 0
BITMAP
ENDCHAR
STARTCHAR 20A3
ENCODING 8355
SWIDTH 500 0
DWIDTH 16 0
BBX 0 0 0 0
BITMAP
ENDCHAR
STARTCHAR 20A7
ENCODING 8359
SWIDTH 500 0
DWIDTH 16 0
BBX 0 0 0 0
BITMAP
ENDCHAR
STARTCHAR 2122
ENCODING 8482
SWIDTH 500 0
DWIDTH 16 0
BBX 0 0 0 0
BITMAP
ENDCHAR
STARTCHAR 2190
ENCODING 8592
SWIDTH 343 0
DWIDTH 11 0
BBX 0 0 0 0
BITMAP
ENDCHAR
STARTCHAR 2191
ENCODING 8593
SWIDTH 343 0
DWIDTH 11 0
BBX 0 0 0 0
BITMAP
ENDCHAR
STARTCHAR 2192
ENCODING 8594
SWIDTH 500 0
DWIDTH 16 0
BBX 0 0 0 0
BITMAP
ENDCHAR
STARTCHAR 2193
ENCODING 8595
SWIDTH 343 0
DWIDTH 11 0
BBX 0 0 0 0
BITMAP
ENDCHAR
STARTCHAR 2194
ENCODING 8596
SWIDTH 343 0
DWIDTH 11 0
BBX 0 0 0 0
BITMAP
ENDCHAR
STARTCHAR 2195
ENCODING 8597
SWIDTH 343 0
DWIDTH 11 0
BBX 0 0 0 0
BITMAP
ENDCHAR
STARTCHAR 21A8
ENCODING 8616
SWIDTH 343 0
DWIDTH 11 0
BBX 0 0 0 0
BITMAP
ENDCHAR
STARTCHAR 2202
ENCODING 8706
SWIDTH 500 0
DWIDTH 16 0
BBX 0 0 0 0
BITMAP
ENDCHAR
STARTCHAR 2206
ENCODING 8710
SWIDTH 500 0
DWIDTH 16 0
BBX 0 0 0 0
BITMAP
ENDCHAR
STARTCHAR 220F
ENCODING 8719
SWIDTH 343 0
DWIDTH 11 0
BBX 0 0 0 0
BITMAP
ENDCHAR
STARTCHAR 2212
ENCODING 8722
SWIDTH 500 0
DWIDTH 16 0
BBX 0 0 0 0
BITMAP
ENDCHAR
STARTCHAR 2215
ENCODING 8725
SWIDTH 93 0
DWIDTH 3 0
BBX 12 26 -4 0
BITMAP
0070
00A0
00A0
00A0
0140
0140
0280
0280
0280
0500
0500
0500
0A00
0A00
1400
1400
1400
2800
2800
2800
5000
5000
A000
A000
A000
4000
ENDCHAR
STARTCHAR 2219
ENCODING 8729
SWIDTH 187 0
DWIDTH 6 0
BBX 4 5 1 6
BITMAP
20
D0
90
90
70
ENDCHAR
STARTCHAR 221A
ENCODING 8730
SWIDTH 500 0
DWIDTH 16 0
BBX 0 0 0 0
BITMAP
ENDCHAR
STARTCHAR 221E
ENCODING 8734
SWIDTH 343 0
DWIDTH 11 0
BBX 0 0 0 0
BITMAP
ENDCHAR
STARTCHAR 221F
ENCODING 8735
SWIDTH 343 0
DWIDTH 11 0
BBX 0 0 0 0
BITMAP
ENDCHAR
STARTCHAR 2229
ENCODING 8745
SWIDTH 343 0
DWIDTH 11 0
BBX 0 0 0 0
BITMAP
ENDCHAR
STARTCHAR 222B
ENCODING 8747
SWIDTH 343 0
DWIDTH 11 0
BBX 0 0 0 0
BITMAP
ENDCHAR
STARTCHAR 2248
ENCODING 8776
SWIDTH 500 0
DWIDTH 16 0
BBX 0 0 0 0
BITMAP
ENDCHAR
STARTCHAR 2260
ENCODING 8800
SWIDTH 500 0
DWIDTH 16 0
BBX 0 0 0 0
BITMAP
ENDCHAR
STARTCHAR 2261
ENCODING 8801
SWIDTH 343 0
DWIDTH 11 0
BBX 0 0 0 0
BITMAP
ENDCHAR
STARTCHAR 2264
ENCODING 8804
SWIDTH 500 0
DWIDTH 16 0
BBX 0 0 0 0
BITMAP
ENDCHAR
STARTCHAR 2265
ENCODING 8805
SWIDTH 500 0
DWIDTH 16 0
BBX 0 0 0 0
BITMAP
ENDCHAR
STARTCHAR 2302
ENCODING 8962
SWIDTH 343 0
DWIDTH 11 0
BBX 0 0 0 0
BITMAP
ENDCHAR
STARTCHAR 2310
ENCODING 8976
SWIDTH 343 0
DWIDTH 11 0
BBX 0 0 0 0
BITMAP
ENDCHAR
STARTCHAR 2320
ENCODING 8992
SWIDTH 343 0
DWIDTH 11 0
BBX 0 0 0 0
BITMAP
ENDCHAR
STARTCHAR 2321
ENCODING 8993
SWIDTH 343 0
DWIDTH 11 0
BBX 0 0 0 0
BITMAP
ENDCHAR
STARTCHAR 2500
ENCODING 9472
SWIDTH 343 0
DWIDTH 11 0
BBX 0 0 0 0
BITMAP
ENDCHAR
STARTCHAR 2502
ENCODING 9474
SWIDTH 343 0
DWIDTH 11 0
BBX 0 0 0 0
BITMAP
ENDCHAR
STARTCHAR 250C
ENCODING 9484
SWIDTH 343 0
DWIDTH 11 0
BBX 0 0 0 0
BITMAP
ENDCHAR
STARTCHAR 2510
ENCODING 9488
SWIDTH 343 0
DWIDTH 11 0
BBX 0 0 0 0
BITMAP
ENDCHAR
STARTCHAR 2514
ENCODING 9492
SWIDTH 343 0
DWIDTH 11 0
BBX 0 0 0 0
BITMAP
ENDCHAR
STARTCHAR 2518
ENCODING 9496
SWIDTH 343 0
DWIDTH 11 0
BBX 0 0 0 0
BITMAP
ENDCHAR
STARTCHAR 251C
ENCODING 9500
SWIDTH 343 0
DWIDTH 11 0
BBX 0 0 0 0
BITMAP
ENDCHAR
STARTCHAR 2524
ENCODING 9508
SWIDTH 343 0
DWIDTH 11 0
BBX 0 0 0 0
BITMAP
ENDCHAR
STARTCHAR 252C
ENCODING 9516
SWIDTH 343 0
DWIDTH 11 0
BBX 0 0 0 0
BITMAP
ENDCHAR
STARTCHAR 2534
ENCODING 9524
SWIDTH 343 0
DWIDTH 11 0
BBX 0 0 0 0
BITMAP
ENDCHAR
STARTCHAR 253C
ENCODING 9532
SWIDTH 343 0
DWIDTH 11 0
BBX 0 0 0 0
BITMAP
ENDCHAR
STARTCHAR 2550
ENCODING 9552
SWIDTH 343 0
DWIDTH 11 0
BBX 0 0 0 0
BITMAP
ENDCHAR
STARTCHAR 2551
ENCODING 9553
SWIDTH 343 0
DWIDTH 11 0
BBX 0 0 0 0
BITMAP
ENDCHAR
STARTCHAR 2552
ENCODING 9554
SWIDTH 343 0
DWIDTH 11 0
BBX 0 0 0 0
BITMAP
ENDCHAR
STARTCHAR 2553
ENCODING 9555
SWIDTH 343 0
DWIDTH 11 0
BBX 0 0 0 0
BITMAP
ENDCHAR
STARTCHAR 2554
ENCODING 9556
SWIDTH 343 0
DWIDTH 11 0
BBX 0 0 0 0
BITMAP
ENDCHAR
STARTCHAR 2555
ENCODING 9557
SWIDTH 343 0
DWIDTH 11 0
BBX 0 0 0 0
BITMAP
ENDCHAR
STARTCHAR 2556
ENCODING 9558
SWIDTH 343 0
DWIDTH 11 0
BBX 0 0 0 0
BITMAP
ENDCHAR
STARTCHAR 2557
ENCODING 9559
SWIDTH 343 0
DWIDTH 11 0
BBX 0 0 0 0
BITMAP
ENDCHAR
STARTCHAR 2558
ENCODING 9560
SWIDTH 343 0
DWIDTH 11 0
BBX 0 0 0 0
BITMAP
ENDCHAR
STARTCHAR 2559
ENCODING 9561
SWIDTH 343 0
DWIDTH 11 0
BBX 0 0 0 0
BITMAP
ENDCHAR
STARTCHAR 255A
ENCODING 9562
SWIDTH 343 0
DWIDTH 11 0
BBX 0 0 0 0
BITMAP
ENDCHAR
STARTCHAR 255B
ENCODING 9563
SWIDTH 343 0
DWIDTH 11 0
BBX 0 0 0 0
BITMAP
ENDCHAR
STARTCHAR 255C
ENCODING 9564
SWIDTH 343 0
DWIDTH 11 0
BBX 0 0 0 0
BITMAP
ENDCHAR
STARTCHAR 255D
ENCODING 9565
SWIDTH 343 0
DWIDTH 11 0
BBX 0 0 0 0
BITMAP
ENDCHAR
STARTCHAR 255E
ENCODING 9566
SWIDTH 343 0
DWIDTH 11 0
BBX 0 0 0 0
BITMAP
ENDCHAR
STARTCHAR 255F
ENCODING 9567
SWIDTH 343 0
DWIDTH 11 0
BBX 0 0 0 0
BITMAP
ENDCHAR
STARTCHAR 2560
ENCODING 9568
SWIDTH 343 0
DWIDTH 11 0
BBX 0 0 0 0
BITMAP
ENDCHAR
STARTCHAR 2561
ENCODING 9569
SWIDTH 343 0
DWIDTH 11 0
BBX 0 0 0 0
BITMAP
ENDCHAR
STARTCHAR 2562
ENCODING 9570
SWIDTH 343 0
DWIDTH 11 0
BBX 0 0 0 0
BITMAP
ENDCHAR
STARTCHAR 2563
ENCODING 9571
SWIDTH 343 0
DWIDTH 11 0
BBX 0 0 0 0
BITMAP
ENDCHAR
STARTCHAR 2564
ENCODING 9572
SWIDTH 343 0
DWIDTH 11 0
BBX 0 0 0 0
BITMAP
ENDCHAR
STARTCHAR 2565
ENCODING 9573
SWIDTH 343 0
DWIDTH 11 0
BBX 0 0 0 0
BITMAP
ENDCHAR
STARTCHAR 2566
ENCODING 9574
SWIDTH 343 0
DWIDTH 11 0
BBX 0 0 0 0
BITMAP
ENDCHAR
STARTCHAR 2567
ENCODING 9575
SWIDTH 343 0
DWIDTH 11 0
BBX 0 0 0 0
BITMAP
ENDCHAR
STARTCHAR 2568
ENCODING 9576
SWIDTH 343 0
DWIDTH 11 0
BBX 0 0 0 0
BITMAP
ENDCHAR
STARTCHAR 2569
ENCODING 9577
SWIDTH 343 0
DWIDTH 11 0
BBX 0 0 0 0
BITMAP
ENDCHAR
STARTCHAR 256A
ENCODING 9578
SWIDTH 343 0
DWIDTH 11 0
BBX 0 0 0 0
BITMAP
ENDCHAR
STARTCHAR 256B
ENCODING 9579
SWIDTH 343 0
DWIDTH 11 0
BBX 0 0 0 0
BITMAP
ENDCHAR
STARTCHAR 256C
ENCODING 9580
SWIDTH 343 0
DWIDTH 11 0
BBX 0 0 0 0
BITMAP
ENDCHAR
STARTCHAR 2580
ENCODING 9600
SWIDTH 343 0
DWIDTH 11 0
BBX 0 0 0 0
BITMAP
ENDCHAR
STARTCHAR 2584
ENCODING 9604
SWIDTH 343 0
DWIDTH 11 0
BBX 0 0 0 0
BITMAP
ENDCHAR
STARTCHAR 2588
ENCODING 9608
SWIDTH 343 0
DWIDTH 11 0
BBX 0 0 0 0
BITMAP
ENDCHAR
STARTCHAR 258C
ENCODING 9612
SWIDTH 343 0
DWIDTH 11 0
BBX 0 0 0 0
BITMAP
ENDCHAR
STARTCHAR 2590
ENCODING 9616
SWIDTH 343 0
DWIDTH 11 0
BBX 0 0 0 0
BITMAP
ENDCHAR
STARTCHAR 2591
ENCODING 9617
SWIDTH 343 0
DWIDTH 11 0
BBX 0 0 0 0
BITMAP
ENDCHAR
STARTCHAR 2592
ENCODING 9618
SWIDTH 343 0
DWIDTH 11 0
BBX 0 0 0 0
BITMAP
ENDCHAR
STARTCHAR 2593
ENCODING 9619
SWIDTH 343 0
DWIDTH 11 0
BBX 0 0 0 0
BITMAP
ENDCHAR
STARTCHAR 25A0
ENCODING 9632
SWIDTH 500 0
DWIDTH 16 0
BBX 0 0 0 0
BITMAP
ENDCHAR
STARTCHAR 25AC
ENCODING 9644
SWIDTH 343 0
DWIDTH 11 0
BBX 0 0 0 0
BITMAP
ENDCHAR
STARTCHAR 25B2
ENCODING 9650
SWIDTH 343 0
DWIDTH 11 0
BBX 0 0 0 0
BITMAP
ENDCHAR
STARTCHAR 25BA
ENCODING 9658
SWIDTH 343 0
DWIDTH 11 0
BBX 0 0 0 0
BITMAP
ENDCHAR
STARTCHAR 25BC
ENCODING 9660
SWIDTH 343 0
DWIDTH 11 0
BBX 0 0 0 0
BITMAP
ENDCHAR
STARTCHAR 25C4
ENCODING 9668
SWIDTH 343 0
DWIDTH 11 0
BBX 0 0 0 0
BITMAP
ENDCHAR
STARTCHAR 25CA
ENCODING 9674
SWIDTH 500 0
DWIDTH 16 0
BBX 0 0 0 0
BITMAP
ENDCHAR
STARTCHAR 25CB
ENCODING 9675
SWIDTH 343 0
DWIDTH 11 0
BBX 0 0 0 0
BITMAP
ENDCHAR
STARTCHAR 25D8
ENCODING 9688
SWIDTH 343 0
DWIDTH 11 0
BBX 0 0 0 0
BITMAP
ENDCHAR
STARTCHAR 25D9
ENCODING 9689
SWIDTH 343 0
DWIDTH 11 0
BBX 0 0 0 0
BITMAP
ENDCHAR
STARTCHAR 263A
ENCODING 9786
SWIDTH 343 0
DWIDTH 11 0
BBX 0 0 0 0
BITMAP
ENDCHAR
STARTCHAR 263B
ENCODING 9787
SWIDTH 343 0
DWIDTH 11 0
BBX 0 0 0 0
BITMAP
ENDCHAR
STARTCHAR 263C
ENCODING 9788
SWIDTH 343 0
DWIDTH 11 0
BBX 0 0 0 0
BITMAP
ENDCHAR
STARTCHAR 2640
ENCODING 9792
SWIDTH 343 0
DWIDTH 11 0
BBX 0 0 0 0
BITMAP
ENDCHAR
STARTCHAR 2642
ENCODING 9794
SWIDTH 343 0
DWIDTH 11 0
BBX 0 0 0 0
BITMAP
ENDCHAR
STARTCHAR 2660
ENCODING 9824
SWIDTH 343 0
DWIDTH 11 0
BBX 0 0 0 0
BITMAP
ENDCHAR
STARTCHAR 2663
ENCODING 9827
SWIDTH 343 0
DWIDTH 11 0
BBX 0 0 0 0
BITMAP
ENDCHAR
STARTCHAR 2665
ENCODING 9829
SWIDTH 343 0
DWIDTH 11 0
BBX 0 0 0 0
BITMAP
ENDCHAR
STARTCHAR 2666
ENCODING 9830
SWIDTH 343 0
DWIDTH 11 0
BBX 0 0 0 0
BITMAP
ENDCHAR
STARTCHAR 266A
ENCODING 9834
SWIDTH 343 0
DWIDTH 11 0
BBX 0 0 0 0
BITMAP
ENDCHAR
STARTCHAR 266B
ENCODING 9835
SWIDTH 343 0
DWIDTH 11 0
BBX 0 0 0 0
BITMAP
ENDCHAR
STARTCHAR F000
ENCODING 61440
SWIDTH 343 0
DWIDTH 11 0
BBX 0 0 0 0
BITMAP
ENDCHAR
STARTCHAR F001
ENCODING 61441
SWIDTH 375 0
DWIDTH 12 0
BBX 12 29 -1 0
BITMAP
00F0
0110
0610
08E0
0900
1200
1260
1490
1460
1400
1400
1400
1400
73F0
8010
8010
7790
1490
1490
1490
1490
1490
1490
1490
1490
1490
1490
1490
0860
ENDCHAR
STARTCHAR F002
ENCODING 61442
SWIDTH 375 0
DWIDTH 12 0
BBX 12 29 -1 0
BITMAP
00F0
0110
0610
08E0
0970
1290
1290
1490
1490
1490
1490
1490
1490
7390
8010
8010
7790
1490
1490
1490
1490
1490
1490
1490
1490
1490
1490
1490
0860
ENDCHAR
ENDFONT
